<svg width="82" height="98" viewBox="0 0 82 98" fill="none" xmlns="http://www.w3.org/2000/svg">
<g clip-path="url(#clip0_102_4021)">
<path d="M2.08531 47.2477C1.74813 47.2479 1.41749 47.1572 1.13011 46.9856C0.842735 46.8141 0.609859 46.5684 0.457346 46.2759C0.304833 45.9834 0.23865 45.6555 0.266148 45.3287C0.293645 45.0018 0.413747 44.6887 0.613116 44.4242L4.45823 39.3221C3.28757 39.0111 2.25357 38.3363 1.51384 37.4006C0.807218 36.4695 0.438481 35.3365 0.465518 34.1795C0.442839 33.4316 0.5933 32.6884 0.905775 32.0047C1.21825 31.321 1.68474 30.7143 2.27075 30.2296C3.42126 29.2186 5.01329 28.713 7.04686 28.713H13.6774C13.966 28.7101 14.2523 28.7626 14.52 28.8674C14.7877 28.9722 15.0316 29.1274 15.2376 29.324C15.4435 29.5206 15.6077 29.7548 15.7205 30.0131C15.8333 30.2715 15.8927 30.549 15.8952 30.8297V45.3372C15.8952 45.8439 15.6882 46.3298 15.3199 46.6881C14.9515 47.0464 14.4519 47.2477 13.931 47.2477C13.6732 47.2477 13.418 47.1982 13.1799 47.1022C12.9418 47.0061 12.7255 46.8653 12.5434 46.6879C12.3613 46.5104 12.217 46.2998 12.1187 46.068C12.0204 45.8362 11.9701 45.5879 11.9706 45.3372V39.7565H8.62502L3.5575 46.5151C3.38921 46.7418 3.168 46.9264 2.91207 47.0538C2.65614 47.1811 2.37279 47.2476 2.08531 47.2477ZM7.26258 36.5392H11.9516V32.0261H7.26258C6.51846 31.9825 5.78211 32.1935 5.18108 32.6224C4.94677 32.834 4.75986 33.0903 4.63205 33.3753C4.50424 33.6603 4.43827 33.968 4.43827 34.2789C4.43827 34.5899 4.50424 34.8975 4.63205 35.1825C4.75986 35.4676 4.94677 35.7239 5.18108 35.9355C5.78281 36.3637 6.518 36.5769 7.26258 36.5392Z" fill="#F7931E"/>
<path d="M31.3134 47.1192H25.8107C25.0896 47.1182 24.3983 46.8397 23.8877 46.3444C23.3771 45.8492 23.0888 45.1775 23.0858 44.4761V30.2852C23.0868 29.8319 23.2727 29.3974 23.6026 29.0772C23.9325 28.757 24.3796 28.5771 24.8456 28.5771H35.1699C35.6356 28.5771 36.0823 28.7571 36.4116 29.0774C36.7409 29.3978 36.9259 29.8322 36.9259 30.2852C36.9259 30.7382 36.7409 31.1727 36.4116 31.493C36.0823 31.8133 35.6356 31.9933 35.1699 31.9933H27.0066V34.9713H31.3134C33.5463 34.9713 35.2986 35.537 36.5702 36.6684C37.1877 37.232 37.6803 37.9123 38.0181 38.6676C38.3558 39.4229 38.5314 40.2373 38.5343 41.061C38.5371 41.8847 38.3671 42.7002 38.0345 43.4577C37.702 44.2152 37.214 44.8987 36.6005 45.4663C35.3112 46.5682 33.5489 47.1192 31.3134 47.1192ZM27.0066 38.1445V43.762H31.0334C32.1763 43.762 33.0594 43.5239 33.6826 43.0478C33.9936 42.7983 34.2396 42.4808 34.4007 42.1213C34.5619 41.7619 34.6335 41.3705 34.6098 40.979C34.6317 40.5826 34.5578 40.1866 34.3942 39.8229C34.2306 39.4592 33.9817 39.1378 33.6674 38.8844C32.9056 38.3514 31.9776 38.0913 31.041 38.1482L27.0066 38.1445Z" fill="#F7931E"/>
<path fill-rule="evenodd" clip-rule="evenodd" d="M43.3937 25.5908H64.0309C65.2495 25.5908 66.2373 26.5517 66.2373 27.7369V47.8103C66.2373 48.9956 65.2495 49.9565 64.0309 49.9565H43.3937C42.1752 49.9565 41.1873 48.9956 41.1873 47.8103V27.7369C41.1873 26.5517 42.1752 25.5908 43.3937 25.5908ZM46.3835 47.1192H50.785C53.0355 47.1192 54.8332 46.5486 56.178 45.4074C56.8321 44.8522 57.3503 44.1618 57.6947 43.3867C58.0391 42.6115 58.2011 41.7713 58.1687 40.9275C58.2013 40.0836 58.0395 39.2433 57.6951 38.4681C57.3506 37.693 56.8323 37.0025 56.178 36.4475C54.8534 35.2818 53.0557 34.6989 50.785 34.6989H47.2426V30.484C47.2426 30.2333 47.1918 29.985 47.0931 29.7534C46.9943 29.5218 46.8496 29.3115 46.6671 29.1344C46.4847 28.9572 46.2681 28.8169 46.0298 28.7212C45.7915 28.6256 45.5362 28.5767 45.2785 28.5772C44.7585 28.5772 44.2599 28.7781 43.8922 29.1357C43.5246 29.4933 43.3181 29.9783 43.3181 30.484V44.1374C43.3181 44.9282 43.641 45.6867 44.2159 46.2458C44.7908 46.805 45.5705 47.1192 46.3835 47.1192ZM47.2426 43.7472V37.9163L50.5655 37.9347C51.5247 37.8796 52.4736 38.1517 53.2487 38.704C53.5729 38.9677 53.8294 39.3013 53.9976 39.6784C54.1658 40.0555 54.2411 40.4655 54.2176 40.8759C54.2402 41.2809 54.1643 41.6853 53.9959 42.0563C53.8275 42.4273 53.5716 42.7544 53.2487 43.011C52.4679 43.5491 51.5203 43.8091 50.5655 43.7472H47.2426ZM61.6676 46.9737C61.9057 47.0697 62.1609 47.1192 62.4187 47.1192C62.6765 47.1192 62.9317 47.0697 63.1698 46.9737C63.4079 46.8776 63.6242 46.7368 63.8063 46.5594C63.9884 46.3819 64.1327 46.1713 64.231 45.9395C64.3293 45.7077 64.3796 45.4594 64.3791 45.2087V30.484C64.3791 29.9783 64.1726 29.4933 63.8049 29.1357C63.4373 28.7781 62.9386 28.5772 62.4187 28.5772C61.8988 28.5772 61.4001 28.7781 61.0325 29.1357C60.6649 29.4933 60.4583 29.9783 60.4583 30.484V45.2087C60.4578 45.4594 60.5082 45.7077 60.6065 45.9395C60.7048 46.1713 60.8491 46.3819 61.0312 46.5594C61.2132 46.7368 61.4295 46.8776 61.6676 46.9737Z" fill="#F7931E"/>
<path d="M33.8037 72.5187H27.5667C27.0648 72.5187 26.5835 72.3248 26.2287 71.9796C25.8738 71.6344 25.6744 71.1662 25.6744 70.6781V57.3817H22.5635C22.0988 57.3788 21.6541 57.1972 21.3265 56.8765C20.9989 56.5558 20.8151 56.1221 20.8151 55.67C20.8151 55.217 21.0001 54.7825 21.3294 54.4622C21.6587 54.1419 22.1054 53.9619 22.5711 53.9619H27.8165C28.2916 53.9619 28.7473 54.1452 29.0836 54.4717C29.4199 54.7981 29.6094 55.241 29.6104 55.7031V60.0837H33.8037C36.0744 60.0837 37.8733 60.6665 39.2004 61.8322C39.8279 62.408 40.3278 63.1023 40.6695 63.8727C41.0112 64.6431 41.1874 65.4732 41.1874 66.3122C41.1874 67.1512 41.0112 67.9814 40.6695 68.7518C40.3278 69.5222 39.8279 70.2165 39.2004 70.7922C37.8582 71.9432 36.0593 72.5187 33.8037 72.5187ZM29.6104 63.3158V69.1467H33.5879C34.545 69.2032 35.4928 68.9367 36.2712 68.3921C36.5935 68.1358 36.8492 67.8093 37.0175 67.439C37.1858 67.0687 37.2621 66.665 37.24 66.2607C37.263 65.8498 37.1874 65.4394 37.0192 65.0618C36.8511 64.6843 36.595 64.3499 36.2712 64.0851C35.4958 63.5333 34.5471 63.2613 33.5879 63.3158H29.6104Z" fill="#F7931E"/>
<path d="M58.2216 72.5187H47.7384C47.1906 72.5177 46.6656 72.3056 46.2783 71.9289C45.891 71.5522 45.673 71.0415 45.672 70.5088V55.9718C45.672 55.4388 45.8897 54.9275 46.2772 54.5506C46.6647 54.1737 47.1903 53.9619 47.7384 53.9619H57.9226C58.3883 53.9619 58.835 54.1419 59.1643 54.4622C59.4936 54.7825 59.6786 55.217 59.6786 55.67C59.6786 56.1233 59.4938 56.5582 59.1645 56.8791C58.8353 57.2 58.3887 57.3807 57.9226 57.3817H49.5966V60.9598H55.9849C56.2124 60.9593 56.4377 61.0025 56.6479 61.0868C56.8582 61.1711 57.0493 61.295 57.2103 61.4512C57.3713 61.6075 57.4991 61.7931 57.5862 61.9975C57.6734 62.2018 57.7182 62.4209 57.7182 62.6421C57.7172 63.0886 57.5342 63.5165 57.2092 63.8319C56.8843 64.1473 56.444 64.3244 55.9849 64.3244H49.5966V69.1099H58.2216C58.6873 69.1099 59.134 69.2899 59.4633 69.6102C59.7926 69.9305 59.9776 70.365 59.9776 70.818C59.9746 71.2694 59.7884 71.7014 59.4595 72.0199C59.1306 72.3385 58.6857 72.5177 58.2216 72.5187Z" fill="#F7931E"/>
<path d="M1.22621 63.0549C1.23292 61.9218 1.45091 60.7992 1.86959 59.7418C2.29799 58.6501 2.9407 57.6499 3.76187 56.7969C4.60928 55.9096 5.6277 55.1929 6.75924 54.6876C8.01958 54.1319 9.39105 53.8553 10.7747 53.8777C12.3983 53.8383 14.0027 54.2262 15.4183 55.0005C15.8551 55.2486 16.268 55.5344 16.6521 55.8545C16.8957 56.0682 17.0865 56.3326 17.2105 56.6281C17.3344 56.9235 17.3882 57.2423 17.3678 57.5608C17.3474 57.8792 17.2534 58.1891 17.0928 58.4673C16.9322 58.7455 16.7091 58.9849 16.4401 59.1676C16.093 59.4032 15.6714 59.5121 15.2498 59.475C14.8282 59.438 14.4335 59.2574 14.1353 58.9651C13.8166 58.6523 13.4503 58.389 13.0492 58.1847C12.6721 57.999 12.2692 57.8675 11.8533 57.7945C11.4569 57.7178 11.0539 57.6783 10.6498 57.6767C9.8871 57.6592 9.13219 57.8288 8.45472 58.17C7.85063 58.4845 7.32182 58.9198 6.90305 59.4473C6.48744 59.9766 6.17803 60.5773 5.99097 61.218C5.79532 61.8697 5.69593 62.5452 5.69578 63.2242C5.69438 63.941 5.81195 64.6532 6.04396 65.3335C6.2645 65.9869 6.60564 66.5956 7.05065 67.1299C7.48148 67.6455 8.01923 68.067 8.62881 68.3668C9.27357 68.6752 9.98434 68.8304 10.7027 68.8196C11.113 68.817 11.5217 68.7701 11.9214 68.6797C12.3413 68.5847 12.7462 68.4348 13.1249 68.2343C13.5177 68.0294 13.8752 67.7661 14.1845 67.4539C14.479 67.1644 14.8639 66.9781 15.2789 66.9241C15.694 66.8701 16.1157 66.9516 16.478 67.1557L16.9397 67.4207C17.1711 67.5526 17.3687 67.7338 17.5175 67.9508C17.6664 68.1677 17.7627 68.4147 17.7992 68.6731C17.8356 68.9315 17.8112 69.1946 17.7279 69.4425C17.6446 69.6905 17.5045 69.9167 17.3182 70.1043L17.2614 70.1595C16.6884 70.704 16.0338 71.1607 15.3199 71.5142C14.5795 71.8805 13.7969 72.1597 12.9886 72.3461C12.2007 72.5336 11.3928 72.63 10.5816 72.6333C9.27463 72.6357 7.98468 72.3447 6.81222 71.7829C5.68524 71.2552 4.67583 70.5173 3.84134 69.611C3.00533 68.7127 2.34483 67.6736 1.8923 66.5446C1.44972 65.4316 1.22385 64.2482 1.22621 63.0549Z" fill="#F7931E"/>
<path d="M73.1933 53.9434C72.7108 53.9396 72.2378 54.0744 71.8338 54.3312C71.4298 54.5879 71.1128 54.9551 70.9226 55.3865L64.5532 69.8682C64.4173 70.176 64.3621 70.5119 64.3925 70.8456C64.4228 71.1794 64.5379 71.5005 64.7273 71.7804C64.9167 72.0602 65.1746 72.2899 65.4778 72.449C65.7809 72.608 66.1199 72.6914 66.4644 72.6916C66.8682 72.6882 67.2621 72.5705 67.5982 72.3528C67.9343 72.1351 68.1978 71.8269 68.3567 71.4658L73.1782 60.5511L77.9846 71.4621C78.1429 71.8239 78.4062 72.1329 78.7423 72.3513C79.0784 72.5696 79.4727 72.6879 79.8769 72.6916C80.2216 72.692 80.5611 72.6091 80.8648 72.4503C81.1685 72.2915 81.4268 72.0618 81.6167 71.7819C81.8065 71.502 81.9219 71.1806 81.9525 70.8465C81.9831 70.5125 81.9279 70.1763 81.7919 69.8682L75.4073 55.3865C75.221 54.9637 74.9127 54.6024 74.5198 54.3463C74.1269 54.0902 73.6662 53.9503 73.1933 53.9434Z" fill="#F7931E"/>
<path d="M15.8951 39.7568H11.9516V86.2831C11.9513 86.4388 11.9665 86.5941 11.997 86.7469H15.8951V39.7568Z" fill="#F7931E"/>
<path d="M35.7489 86.7464H15.8951L14.5705 86.5072L13.912 86.0176C12.682 86.0176 12.2203 87.8913 11.997 86.7538H11.9516C12.2434 89.6845 13.593 92.42 15.7611 94.4749C17.9292 96.5297 20.7755 97.7712 23.795 97.979C26.8146 98.1868 29.8123 97.3475 32.2562 95.61C34.7001 93.8726 36.4323 91.3492 37.1454 88.4876C37.1982 88.2812 37.202 88.0657 37.1566 87.8575C37.1111 87.6494 37.0176 87.4541 36.883 87.2863C36.7485 87.1185 36.5764 86.9827 36.3799 86.8892C36.1835 86.7957 35.9677 86.7469 35.7489 86.7464Z" fill="#F7931E"/>
<path d="M14.4759 88.7376H15.8951V86.7461H11.997C12.1078 87.3065 12.4159 87.8119 12.8683 88.1754C13.3207 88.5388 13.8891 88.7376 14.4759 88.7376Z" fill="#F7931E"/>
<path d="M15.8951 84.7876C15.8951 84.7876 15.8232 86.746 17.848 86.746C19.8727 86.746 13.931 88.178 13.931 88.178L13.4238 82.6084L15.8951 84.7876Z" fill="#F7931E"/>
<path d="M0.237778 23.0102C-0.0217396 22.4944 -0.0736116 21.9029 0.0923517 21.3519C0.258315 20.8009 0.630117 20.3301 1.13472 20.0321L36.9972 0.249505C37.2924 0.0841194 37.6272 -0.00292969 37.9679 -0.00292969C38.3086 -0.00292969 38.6434 0.0841194 38.9387 0.249505L74.7027 20.0247C75.2057 20.3251 75.575 20.7976 75.7381 21.3493C75.9013 21.901 75.8465 22.4921 75.5845 23.0065C75.4719 23.2563 75.3068 23.4805 75.0998 23.6645C74.8928 23.8486 74.6485 23.9884 74.3825 24.0751C74.1166 24.1618 73.835 24.1934 73.5558 24.1678C73.2765 24.1423 73.0059 24.0602 72.7612 23.9268L38.9349 5.23748C38.6394 5.07281 38.3047 4.98618 37.9641 4.98618C37.6236 4.98618 37.2889 5.07281 36.9934 5.23748L3.06106 23.9452C2.81535 24.0776 2.54387 24.1585 2.26409 24.1827C1.9843 24.207 1.7024 24.174 1.43649 24.0859C1.17059 23.9979 0.926572 23.8567 0.720127 23.6714C0.513683 23.4861 0.349379 23.2609 0.237778 23.0102Z" fill="#F7931E"/>
<path d="M71.4449 22.0869H75.8274V45.6096C75.8274 46.1748 75.5965 46.717 75.1856 47.1167C74.7747 47.5164 74.2173 47.741 73.6361 47.741C73.055 47.741 72.4976 47.5164 72.0867 47.1167C71.6757 46.717 71.4449 46.1748 71.4449 45.6096V22.0869Z" fill="#F7931E"/>
</g>
<defs>
<clipPath id="clip0_102_4021">
<rect width="82" height="98" fill="white"/>
</clipPath>
</defs>
</svg>
