<svg width="50" height="60" viewBox="0 0 50 60" fill="none" xmlns="http://www.w3.org/2000/svg">
<g clip-path="url(#clip0_102_1572)">
<path d="M39.0433 15.6682H26.4596C25.7166 15.6682 25.1143 16.2565 25.1143 16.9822V29.272C25.1143 29.9977 25.7166 30.586 26.4596 30.586H39.0433C39.7863 30.586 40.3886 29.9977 40.3886 29.272V16.9822C40.3886 16.2565 39.7863 15.6682 39.0433 15.6682Z" fill="#F7941D"/>
<path d="M1.27152 28.9272C1.06592 28.9273 0.864315 28.8718 0.689084 28.7668C0.513853 28.6617 0.371855 28.5113 0.278859 28.3323C0.185863 28.1532 0.145508 27.9524 0.162275 27.7523C0.179042 27.5522 0.252274 27.3605 0.373841 27.1986L2.71842 24.0748C2.0046 23.8844 1.37412 23.4713 0.923063 22.8984C0.492195 22.3283 0.267356 21.6347 0.283842 20.9263C0.270013 20.4684 0.361758 20.0133 0.552291 19.5947C0.742824 19.1762 1.02727 18.8048 1.38459 18.508C2.08612 17.889 3.05688 17.5794 4.29686 17.5794H8.33987C8.51583 17.5777 8.69043 17.6098 8.85367 17.674C9.0169 17.7382 9.16558 17.8332 9.29118 17.9535C9.41678 18.0739 9.51685 18.2173 9.58566 18.3755C9.65446 18.5336 9.69065 18.7035 9.69216 18.8754V27.7575C9.69216 28.0677 9.56598 28.3652 9.34137 28.5846C9.11676 28.804 8.81213 28.9272 8.49449 28.9272C8.33731 28.9272 8.18168 28.8969 8.0365 28.8381C7.89133 28.7793 7.75945 28.6931 7.64842 28.5845C7.53739 28.4758 7.44938 28.3469 7.38945 28.205C7.32951 28.0631 7.29882 27.911 7.29912 27.7575V24.3408H5.25915L2.1692 28.4787C2.06658 28.6175 1.9317 28.7305 1.77564 28.8085C1.61959 28.8865 1.44681 28.9272 1.27152 28.9272ZM4.42839 22.371H7.28758V19.6078H4.42839C3.97466 19.5812 3.52567 19.7103 3.15918 19.973C3.01631 20.1025 2.90235 20.2594 2.82441 20.4339C2.74648 20.6084 2.70625 20.7968 2.70625 20.9872C2.70625 21.1775 2.74648 21.3659 2.82441 21.5404C2.90235 21.7149 3.01631 21.8718 3.15918 22.0014C3.5261 22.2635 3.97438 22.3941 4.42839 22.371Z" fill="black"/>
<path d="M19.0935 28.8483H15.7382C15.2985 28.8477 14.8769 28.6772 14.5656 28.374C14.2543 28.0708 14.0785 27.6595 14.0767 27.2301V18.5418C14.0773 18.2643 14.1906 17.9983 14.3918 17.8022C14.5929 17.6062 14.8655 17.4961 15.1497 17.4961H21.445C21.729 17.4961 22.0013 17.6062 22.2021 17.8024C22.403 17.9985 22.5158 18.2645 22.5158 18.5418C22.5158 18.8192 22.403 19.0852 22.2021 19.2813C22.0013 19.4774 21.729 19.5876 21.445 19.5876H16.4674V21.4109H19.0935C20.455 21.4109 21.5235 21.7572 22.2988 22.4499C22.6753 22.7949 22.9758 23.2115 23.1817 23.6739C23.3876 24.1363 23.4947 24.635 23.4965 25.1392C23.4982 25.6435 23.3945 26.1428 23.1917 26.6066C22.989 27.0704 22.6914 27.4888 22.3173 27.8364C21.5312 28.511 20.4566 28.8483 19.0935 28.8483ZM16.4674 23.3536V26.7929H18.9227C19.6197 26.7929 20.1581 26.6471 20.5381 26.3557C20.7277 26.2029 20.8778 26.0085 20.976 25.7884C21.0742 25.5683 21.1179 25.3287 21.1035 25.089C21.1168 24.8463 21.0718 24.6039 20.972 24.3812C20.8722 24.1585 20.7205 23.9618 20.5289 23.8066C20.0643 23.4803 19.4985 23.3211 18.9274 23.3559L16.4674 23.3536Z" fill="black"/>
<path d="M30.9665 28.8483H28.2827C27.7869 28.8483 27.3115 28.656 26.9609 28.3136C26.6104 27.9713 26.4135 27.5069 26.4135 27.0228V18.6635C26.4135 18.3539 26.5394 18.0569 26.7636 17.838C26.9877 17.6191 27.2918 17.4961 27.6088 17.4961C27.766 17.4958 27.9217 17.5257 28.067 17.5843C28.2123 17.6428 28.3443 17.7288 28.4556 17.8372C28.5668 17.9456 28.6551 18.0744 28.7153 18.2162C28.7755 18.358 28.8065 18.51 28.8065 18.6635V21.2441H30.9665C32.3511 21.2441 33.4472 21.6009 34.2549 22.3146C34.6538 22.6545 34.9699 23.0772 35.1799 23.5518C35.39 24.0264 35.4886 24.5408 35.4687 25.0575C35.4885 25.5741 35.3897 26.0885 35.1797 26.5631C34.9697 27.0377 34.6537 27.4604 34.2549 27.8003C33.4349 28.499 32.3387 28.8483 30.9665 28.8483ZM28.8065 23.2139V26.7839H30.8326C31.4148 26.8217 31.9926 26.6626 32.4687 26.3331C32.6656 26.176 32.8217 25.9757 32.9243 25.7486C33.027 25.5214 33.0733 25.2738 33.0595 25.0259C33.0738 24.7747 33.0279 24.5236 32.9253 24.2927C32.8228 24.0619 32.6664 23.8576 32.4687 23.6962C31.9961 23.358 31.4175 23.1915 30.8326 23.2252L28.8065 23.2139ZM38.0602 28.8483C37.903 28.8483 37.7474 28.8181 37.6022 28.7592C37.457 28.7004 37.3252 28.6142 37.2141 28.5056C37.1031 28.3969 37.0151 28.268 36.9552 28.1261C36.8952 27.9842 36.8645 27.8321 36.8648 27.6786V18.6635C36.8648 18.3539 36.9908 18.0569 37.2149 17.838C37.4391 17.6191 37.7432 17.4961 38.0602 17.4961C38.3772 17.4961 38.6813 17.6191 38.9054 17.838C39.1296 18.0569 39.2556 18.3539 39.2556 18.6635V27.6786C39.2559 27.8321 39.2252 27.9842 39.1652 28.1261C39.1053 28.268 39.0173 28.3969 38.9063 28.5056C38.7952 28.6142 38.6634 28.7004 38.5182 28.7592C38.373 28.8181 38.2174 28.8483 38.0602 28.8483Z" fill="black"/>
<path d="M20.612 44.3994H16.809C16.503 44.3994 16.2095 44.2806 15.9931 44.0693C15.7767 43.858 15.6552 43.5713 15.6552 43.2725V35.1318H13.7583C13.4749 35.1301 13.2037 35.0189 13.004 34.8225C12.8042 34.6262 12.6921 34.3606 12.6921 34.0838C12.6921 33.8065 12.8049 33.5405 13.0058 33.3444C13.2066 33.1483 13.4789 33.0381 13.7629 33.0381H16.9613C17.251 33.0381 17.5289 33.1503 17.7339 33.3502C17.939 33.55 18.0545 33.8212 18.0551 34.1041V36.7861H20.612C21.9966 36.7861 23.0935 37.143 23.9027 37.8567C24.2853 38.2091 24.5902 38.6342 24.7985 39.1059C25.0068 39.5776 25.1143 40.0858 25.1143 40.5995C25.1143 41.1132 25.0068 41.6214 24.7985 42.0931C24.5902 42.5648 24.2853 42.9899 23.9027 43.3423C23.0843 44.047 21.9874 44.3994 20.612 44.3994ZM18.0551 38.7649V42.3349H20.4805C21.0641 42.3695 21.642 42.2063 22.1166 41.8729C22.3131 41.716 22.469 41.5161 22.5717 41.2894C22.6743 41.0626 22.7208 40.8155 22.7074 40.5679C22.7214 40.3164 22.6753 40.0651 22.5727 39.834C22.4702 39.6028 22.3141 39.3981 22.1166 39.236C21.6438 38.8981 21.0653 38.7316 20.4805 38.7649H18.0551Z" fill="black"/>
<path d="M35.5009 44.3994H29.1087C28.7748 44.3988 28.4546 44.2689 28.2185 44.0383C27.9823 43.8076 27.8494 43.495 27.8488 43.1688V34.2686C27.8488 33.9423 27.9815 33.6293 28.2178 33.3985C28.4541 33.1677 28.7746 33.0381 29.1087 33.0381H35.3186C35.6026 33.0381 35.875 33.1483 36.0758 33.3444C36.2766 33.5405 36.3894 33.8065 36.3894 34.0838C36.3894 34.3614 36.2767 34.6276 36.0759 34.8241C35.8752 35.0206 35.6028 35.1312 35.3186 35.1318H30.2418V37.3225H34.1371C34.2758 37.3222 34.4132 37.3486 34.5414 37.4003C34.6696 37.4519 34.7862 37.5277 34.8843 37.6234C34.9825 37.7191 35.0604 37.8327 35.1135 37.9578C35.1667 38.0829 35.194 38.217 35.194 38.3525C35.1934 38.6259 35.0818 38.8878 34.8837 39.0809C34.6855 39.274 34.417 39.3825 34.1371 39.3825H30.2418V42.3124H35.5009C35.7849 42.3124 36.0573 42.4225 36.2581 42.6187C36.4589 42.8148 36.5717 43.0808 36.5717 43.3581C36.5699 43.6345 36.4563 43.899 36.2558 44.094C36.0552 44.289 35.7839 44.3988 35.5009 44.3994Z" fill="black"/>
<path d="M0.747692 38.6049C0.751783 37.9112 0.884703 37.2239 1.13999 36.5765C1.40122 35.9081 1.79311 35.2957 2.29382 34.7735C2.81054 34.2303 3.43152 33.7915 4.12149 33.4821C4.88999 33.1419 5.72625 32.9725 6.56991 32.9863C7.55991 32.9621 8.53821 33.1996 9.40141 33.6737C9.66771 33.8256 9.91949 34.0006 10.1537 34.1965C10.3022 34.3274 10.4186 34.4893 10.4942 34.6701C10.5698 34.851 10.6026 35.0462 10.5901 35.2412C10.5777 35.4362 10.5204 35.6259 10.4225 35.7962C10.3245 35.9666 10.1885 36.1131 10.0245 36.2249C9.81278 36.3692 9.55574 36.4359 9.29865 36.4132C9.04156 36.3905 8.80092 36.2799 8.61911 36.101C8.42477 35.9094 8.20139 35.7483 7.95681 35.6232C7.72687 35.5095 7.48123 35.429 7.22759 35.3843C6.98591 35.3373 6.74017 35.3132 6.49376 35.3122C6.02872 35.3014 5.56841 35.4053 5.15532 35.6142C4.78697 35.8067 4.46453 36.0733 4.20918 36.3962C3.95576 36.7203 3.76709 37.088 3.65303 37.4803C3.53373 37.8793 3.47313 38.2929 3.47303 38.7086C3.47218 39.1474 3.54387 39.5835 3.68534 40C3.81982 40.4 4.02783 40.7727 4.29918 41.0999C4.56188 41.4155 4.88977 41.6736 5.26147 41.8571C5.65461 42.0459 6.08802 42.1409 6.52606 42.1343C6.77624 42.1328 7.02546 42.104 7.26913 42.0487C7.52521 41.9905 7.77206 41.8988 8.00297 41.776C8.24251 41.6505 8.46052 41.4893 8.64911 41.2982C8.82868 41.1209 9.06337 41.0069 9.31643 40.9738C9.56949 40.9408 9.82662 40.9907 10.0475 41.1156L10.3291 41.2779C10.4702 41.3586 10.5906 41.4696 10.6814 41.6024C10.7722 41.7352 10.8309 41.8864 10.8531 42.0447C10.8754 42.2029 10.8605 42.3639 10.8097 42.5157C10.7589 42.6675 10.6735 42.8061 10.5598 42.9209L10.5252 42.9547C10.1758 43.288 9.77668 43.5677 9.34141 43.7841C8.88993 44.0083 8.41274 44.1793 7.91989 44.2935C7.43945 44.4082 6.94682 44.4672 6.45222 44.4692C5.65526 44.4708 4.86871 44.2926 4.15379 43.9486C3.46661 43.6255 2.85112 43.1737 2.34228 42.6189C1.83252 42.0689 1.42977 41.4327 1.15384 40.7415C0.883975 40.0601 0.74625 39.3356 0.747692 38.6049Z" fill="black"/>
<path d="M44.6301 33.0268C44.3358 33.0245 44.0474 33.1071 43.8011 33.2642C43.5547 33.4214 43.3614 33.6462 43.2455 33.9103L39.3617 42.7767C39.2788 42.9652 39.2451 43.1708 39.2637 43.3751C39.2822 43.5794 39.3524 43.7761 39.4679 43.9474C39.5834 44.1187 39.7406 44.2594 39.9255 44.3568C40.1103 44.4541 40.317 44.5052 40.5271 44.5053C40.7732 44.5033 41.0135 44.4312 41.2184 44.2979C41.4233 44.1646 41.584 43.9759 41.6809 43.7548L44.6208 37.0724L47.5516 43.7526C47.6481 43.974 47.8086 44.1632 48.0136 44.2969C48.2185 44.4306 48.4589 44.5031 48.7054 44.5053C48.9156 44.5056 49.1226 44.4548 49.3078 44.3576C49.4929 44.2603 49.6505 44.1197 49.7663 43.9484C49.882 43.777 49.9524 43.5802 49.971 43.3757C49.9897 43.1712 49.956 42.9653 49.8731 42.7767L45.9801 33.9103C45.8664 33.6515 45.6785 33.4303 45.4389 33.2735C45.1993 33.1167 44.9184 33.031 44.6301 33.0268Z" fill="black"/>
<path d="M9.69218 24.3408H7.2876V52.8263C7.28744 52.9216 7.29671 53.0167 7.31529 53.1102H9.69218V24.3408Z" fill="black"/>
<path d="M21.7981 53.1102H9.69218L8.8845 52.9637L8.48296 52.664C7.73298 52.664 7.45144 53.8111 7.31529 53.1147H7.2876C7.46552 54.909 8.28848 56.5838 9.61046 57.8419C10.9324 59.1 12.668 59.8601 14.5092 59.9873C16.3504 60.1145 18.1783 59.6007 19.6684 58.5369C21.1586 57.4731 22.2148 55.9282 22.6497 54.1763C22.6819 54.0498 22.6842 53.9179 22.6565 53.7905C22.6288 53.663 22.5717 53.5434 22.4897 53.4407C22.4076 53.338 22.3027 53.2549 22.1829 53.1976C22.0631 53.1404 21.9315 53.1105 21.7981 53.1102Z" fill="black"/>
<path d="M8.82682 54.3295H9.69219V53.1102H7.31531C7.38289 53.4534 7.57076 53.7628 7.8466 53.9853C8.12245 54.2078 8.46905 54.3295 8.82682 54.3295Z" fill="black"/>
<path d="M9.6922 51.9112C9.6922 51.9112 9.64836 53.1102 10.883 53.1102C12.1175 53.1102 8.49453 53.9869 8.49453 53.9869L8.1853 50.577L9.6922 51.9112Z" fill="black"/>
<path d="M0.145138 14.0881C-0.013104 13.7724 -0.0447333 13.4102 0.0564638 13.0729C0.157661 12.7355 0.38437 12.4473 0.692053 12.2648L22.5594 0.153026C22.7394 0.0517695 22.9436 -0.00152588 23.1513 -0.00152588C23.3591 -0.00152588 23.5632 0.0517695 23.7432 0.153026L45.5506 12.2603C45.8573 12.4442 46.0824 12.7335 46.1819 13.0712C46.2814 13.409 46.248 13.7709 46.0883 14.0859C46.0196 14.2388 45.9189 14.3761 45.7927 14.4888C45.6665 14.6014 45.5175 14.6871 45.3554 14.7401C45.1932 14.7932 45.0215 14.8125 44.8512 14.7969C44.681 14.7813 44.5159 14.731 44.3668 14.6493L23.7409 3.20689C23.5607 3.10607 23.3567 3.05303 23.149 3.05303C22.9413 3.05303 22.7373 3.10607 22.5571 3.20689L1.86665 14.6606C1.71683 14.7416 1.55129 14.7912 1.38069 14.806C1.21009 14.8209 1.0382 14.8007 0.876062 14.7468C0.713926 14.6928 0.565135 14.6064 0.439254 14.493C0.313373 14.3795 0.213188 14.2416 0.145138 14.0881Z" fill="black"/>
<path d="M43.564 13.5227H46.2362V27.9243C46.2362 28.2704 46.0955 28.6023 45.8449 28.847C45.5943 29.0917 45.2545 29.2292 44.9001 29.2292C44.5457 29.2292 44.2059 29.0917 43.9553 28.847C43.7047 28.6023 43.564 28.2704 43.564 27.9243V13.5227Z" fill="black"/>
</g>
<defs>
<clipPath id="clip0_102_1572">
<rect width="50" height="60" fill="white"/>
</clipPath>
</defs>
</svg>
