<svg width="25" height="25" viewBox="0 0 25 25" fill="none" xmlns="http://www.w3.org/2000/svg">
<g clip-path="url(#clip0_102_4736)">
<path d="M16.337 0H8.663C1.6601 0 0 1.6601 0 8.663V16.337C0 23.3399 1.6601 25 8.663 25H16.337C23.3399 25 25 23.3399 25 16.337V8.663C25 1.6601 23.3235 0 16.337 0ZM20.1822 17.8338H18.3674C17.6799 17.8338 17.4682 17.2885 16.2315 16.0355C15.1573 14.994 14.6816 14.8558 14.4167 14.8558C14.0425 14.8558 13.9363 14.9613 13.9363 15.4745V17.1143C13.9363 17.5541 13.798 17.8182 12.634 17.8182C10.709 17.8182 8.57318 16.6542 7.07555 14.4855C4.81705 11.3075 4.19909 8.92705 4.19909 8.43491C4.19909 8.17005 4.30455 7.92241 4.81314 7.92241H6.63182C7.09195 7.92241 7.26695 8.13414 7.44586 8.62627C8.34505 11.2223 9.84268 13.4965 10.4606 13.4965C10.6887 13.4965 10.7942 13.391 10.7942 12.809V10.1278C10.7247 8.89114 10.0739 8.78486 10.0739 8.34582C10.0739 8.13414 10.2489 7.92241 10.5294 7.92241H13.3894C13.7761 7.92241 13.9183 8.13414 13.9183 8.58959V12.2066C13.9183 12.5973 14.0933 12.7355 14.1988 12.7355C14.4269 12.7355 14.6222 12.5973 15.0449 12.1738C16.351 10.709 17.287 8.4505 17.287 8.4505C17.4088 8.18568 17.6205 7.93805 18.0807 7.93805H19.8994C20.4447 7.93805 20.5665 8.2185 20.4447 8.60909C20.2165 9.66686 17.9909 12.8082 17.9909 12.8082C17.7995 13.1254 17.726 13.2636 17.9909 13.6175C18.1861 13.8824 18.8213 14.4316 19.2439 14.9238C20.0212 15.8065 20.6189 16.5471 20.7783 17.0596C20.9571 17.5682 20.6931 17.833 20.1798 17.833L20.1822 17.8338Z" fill="#E0E0E0"/>
</g>
<defs>
<clipPath id="clip0_102_4736">
<rect width="25" height="25" fill="white"/>
</clipPath>
</defs>
</svg>
