<svg width="64" height="64" viewBox="0 0 64 64" fill="none" xmlns="http://www.w3.org/2000/svg">
<g clip-path="url(#clip0_135_4293)">
<path fill-rule="evenodd" clip-rule="evenodd" d="M32 64C49.6731 64 64 49.6731 64 32C64 14.3269 49.6731 0 32 0C14.3269 0 0 14.3269 0 32C0 49.6731 14.3269 64 32 64ZM10.8021 19.4668C11.1487 36.1068 19.4686 46.1068 34.0553 46.1068H34.8822V36.5868C40.2422 37.1201 44.2952 41.0401 45.9218 46.1068H53.4954C51.4154 38.5335 45.9485 34.3468 42.5352 32.7468C45.9485 30.7735 50.7485 25.9735 51.8951 19.4668H45.015C43.5217 24.7468 39.0956 29.5468 34.8822 30.0001V19.4668H28.002V37.9201C23.7353 36.8535 18.3488 31.6801 18.1088 19.4668H10.8021Z" fill="white"/>
</g>
<defs>
<clipPath id="clip0_135_4293">
<rect width="64" height="64" fill="white"/>
</clipPath>
</defs>
</svg>
